<mxfile host="65bd71144e">
    <diagram id="RqeQLfgY6RpatMZOiXfh" name="Page-1">
        <mxGraphModel dx="692" dy="579" grid="1" gridSize="10" guides="1" tooltips="1" connect="1" arrows="1" fold="1" page="1" pageScale="1" pageWidth="827" pageHeight="1169" math="0" shadow="0">
            <root>
                <mxCell id="0"/>
                <mxCell id="1" parent="0"/>
                <mxCell id="4" value="" style="whiteSpace=wrap;html=1;" parent="1" vertex="1">
                    <mxGeometry x="100" y="160" width="440" height="200" as="geometry"/>
                </mxCell>
                <mxCell id="6" value="" style="whiteSpace=wrap;html=1;" vertex="1" parent="1">
                    <mxGeometry x="100" y="360" width="440" height="50" as="geometry"/>
                </mxCell>
                <mxCell id="7" value="return: koffie uit koffiemachine" style="text;html=1;resizable=0;autosize=1;align=center;verticalAlign=middle;points=[];fillColor=none;strokeColor=none;rounded=0;fontSize=13;" vertex="1" parent="1">
                    <mxGeometry x="225" y="375" width="190" height="20" as="geometry"/>
                </mxCell>
                <mxCell id="9" value="" style="whiteSpace=wrap;html=1;" vertex="1" parent="1">
                    <mxGeometry x="100" y="210" width="440" height="100" as="geometry"/>
                </mxCell>
                <mxCell id="10" value="" style="whiteSpace=wrap;html=1;" vertex="1" parent="1">
                    <mxGeometry x="200" y="210" width="120" height="100" as="geometry"/>
                </mxCell>
                <mxCell id="11" value="" style="whiteSpace=wrap;html=1;" vertex="1" parent="1">
                    <mxGeometry x="320" y="210" width="120" height="100" as="geometry"/>
                </mxCell>
                <mxCell id="5" value="" style="triangle;whiteSpace=wrap;html=1;fontSize=13;rotation=90;" parent="1" vertex="1">
                    <mxGeometry x="281.25" y="38.75" width="75" height="417.5" as="geometry"/>
                </mxCell>
                <mxCell id="12" value="selecteer koffie keuze" style="text;html=1;resizable=0;autosize=1;align=center;verticalAlign=middle;points=[];fillColor=none;strokeColor=none;rounded=0;fontSize=13;" vertex="1" parent="1">
                    <mxGeometry x="250" y="230" width="140" height="20" as="geometry"/>
                </mxCell>
                <mxCell id="3" value="plaats kopje onder machine" style="text;html=1;resizable=0;autosize=1;align=center;verticalAlign=middle;points=[];fillColor=none;strokeColor=none;rounded=0;fontSize=13;" parent="1" vertex="1">
                    <mxGeometry x="235" y="170" width="170" height="20" as="geometry"/>
                </mxCell>
                <mxCell id="15" value="koffie" style="text;html=1;resizable=0;autosize=1;align=center;verticalAlign=middle;points=[];fillColor=none;strokeColor=none;rounded=0;fontSize=13;" vertex="1" parent="1">
                    <mxGeometry x="120" y="260" width="50" height="20" as="geometry"/>
                </mxCell>
                <mxCell id="16" value="cappuchino" style="text;html=1;resizable=0;autosize=1;align=center;verticalAlign=middle;points=[];fillColor=none;strokeColor=none;rounded=0;fontSize=13;" vertex="1" parent="1">
                    <mxGeometry x="210" y="280" width="80" height="20" as="geometry"/>
                </mxCell>
                <mxCell id="17" value="latte machiato" style="text;html=1;resizable=0;autosize=1;align=center;verticalAlign=middle;points=[];fillColor=none;strokeColor=none;rounded=0;fontSize=13;" vertex="1" parent="1">
                    <mxGeometry x="340" y="280" width="100" height="20" as="geometry"/>
                </mxCell>
                <mxCell id="19" value="espresso" style="text;html=1;resizable=0;autosize=1;align=center;verticalAlign=middle;points=[];fillColor=none;strokeColor=none;rounded=0;fontSize=13;" vertex="1" parent="1">
                    <mxGeometry x="450" y="260" width="70" height="20" as="geometry"/>
                </mxCell>
                <mxCell id="20" value="wacht tot machine klaar is&amp;nbsp;" style="text;html=1;resizable=0;autosize=1;align=center;verticalAlign=middle;points=[];fillColor=none;strokeColor=none;rounded=0;fontSize=13;" vertex="1" parent="1">
                    <mxGeometry x="235" y="320" width="170" height="20" as="geometry"/>
                </mxCell>
            </root>
        </mxGraphModel>
    </diagram>
</mxfile>